<svg width="121" height="120" viewBox="0 0 121 120" fill="none" xmlns="http://www.w3.org/2000/svg">
<path fill-rule="evenodd" clip-rule="evenodd" d="M70.8 20.4251C71.9315 20.025 73.1426 19.9024 74.3314 20.0674C75.5201 20.2324 76.652 20.6804 77.6317 21.3736C78.6115 22.0667 79.4106 22.9849 79.9619 24.051C80.5132 25.1171 80.8006 26.2999 80.8 27.5001V52.8751L83.44 49.5751C84.7731 47.9235 86.6908 46.8484 88.7954 46.5729C90.8999 46.2974 93.0298 46.8426 94.7431 48.0954C96.4564 49.3482 97.6217 51.2125 97.9972 53.3015C98.3728 55.3906 97.9297 57.544 96.76 59.3151L88.115 72.2851C85.1691 76.7043 81.0488 80.2141 76.2175 82.4201L78.2925 107.293C78.3212 107.637 78.2781 107.984 78.1658 108.311C78.0536 108.639 77.8747 108.939 77.6404 109.193C77.4061 109.448 77.1216 109.651 76.8048 109.79C76.488 109.929 76.1459 110 75.8 110H45.8C45.4541 110 45.1119 109.929 44.7952 109.79C44.4784 109.651 44.1938 109.448 43.9596 109.193C43.7253 108.939 43.5464 108.639 43.4342 108.311C43.3219 107.984 43.2788 107.637 43.3075 107.293L45.3275 83.0826C42.4584 81.6146 40.0504 79.3827 38.3693 76.6331C36.6881 73.8835 35.799 70.7229 35.8 67.5001V32.5001C35.7994 31.2999 36.0868 30.1171 36.6381 29.051C37.1894 27.9849 37.9885 27.0667 38.9683 26.3736C39.948 25.6804 41.0798 25.2324 42.2686 25.0674C43.4574 24.9024 44.6684 25.025 45.8 25.4251V22.5001C45.7996 21.2763 46.0987 20.0711 46.6711 18.9895C47.2436 17.9079 48.072 16.9827 49.0841 16.2949C50.0962 15.607 51.2613 15.1772 52.4777 15.043C53.694 14.9088 54.9248 15.0743 56.0625 15.5251C56.5429 13.7744 57.6418 12.2574 59.1554 11.2551C60.669 10.2529 62.4947 9.83342 64.294 10.0746C66.0933 10.3157 67.7441 11.201 68.9404 12.5664C70.1368 13.9318 70.7975 15.6847 70.8 17.5001V20.4251ZM63.3 15.0001C62.6369 15.0001 62.0011 15.2635 61.5322 15.7323C61.0634 16.2012 60.8 16.837 60.8 17.5001V50.0001H55.8V22.5001C55.8 21.837 55.5366 21.2012 55.0678 20.7323C54.5989 20.2635 53.963 20.0001 53.3 20.0001C52.6369 20.0001 52.0011 20.2635 51.5322 20.7323C51.0634 21.2012 50.8 21.837 50.8 22.5001V50.0001H45.8V32.5001C45.8 31.837 45.5366 31.2012 45.0678 30.7323C44.5989 30.2635 43.963 30.0001 43.3 30.0001C42.6369 30.0001 42.0011 30.2635 41.5322 30.7323C41.0634 31.2012 40.8 31.837 40.8 32.5001V67.5001C40.7998 70.035 41.57 72.5102 43.0085 74.5975C44.447 76.6847 46.486 78.2855 48.855 79.1876C49.3612 79.3808 49.7909 79.7332 50.0795 80.1917C50.368 80.6503 50.4998 81.1902 50.455 81.7301L48.5175 105H73.0825L71.0825 81.0226C71.0371 80.4809 71.1694 79.9392 71.4595 79.4795C71.7495 79.0199 72.1815 78.6672 72.69 78.4751C77.2886 76.7356 81.2276 73.6008 83.955 69.5101L92.6 56.5426C93.0647 55.8436 93.2418 54.9923 93.0946 54.166C92.9474 53.3396 92.4871 52.6019 91.8096 52.1064C91.1321 51.6109 90.2896 51.3959 89.4575 51.506C88.6254 51.6161 87.8678 52.0429 87.3425 52.6976L80.2525 61.5626C79.9289 61.9673 79.4875 62.2614 78.9894 62.4043C78.4913 62.5472 77.9611 62.5318 77.4722 62.3602C76.9832 62.1886 76.5597 61.8694 76.2601 61.4465C75.9605 61.0237 75.7997 60.5183 75.8 60.0001V27.5001C75.8 26.837 75.5366 26.2012 75.0678 25.7323C74.5989 25.2635 73.963 25.0001 73.3 25.0001C72.637 25.0001 72.0011 25.2635 71.5322 25.7323C71.0634 26.2012 70.8 26.837 70.8 27.5001V50.0001H65.8V17.5001C65.8 16.837 65.5366 16.2012 65.0678 15.7323C64.5989 15.2635 63.963 15.0001 63.3 15.0001Z" fill="#ED1C24"/>
<path d="M25.8 35H30.8V40H25.8V35ZM25.8 40V72.5C25.7987 75.7226 26.6875 78.8829 28.3682 81.6325C30.0489 84.3821 32.4563 86.6142 35.325 88.0825L33.915 105H38.935L40.455 86.7325C40.5004 86.1922 40.3688 85.6517 40.0802 85.1926C39.7916 84.7336 39.3616 84.3808 38.855 84.1875C36.486 83.2854 34.447 81.6846 33.0085 79.5974C31.57 77.5101 30.7998 75.035 30.8 72.5V40H25.8Z" fill="#ED1C24"/>
</svg>
