<svg width="141" height="153" viewBox="0 0 141 153" fill="none" xmlns="http://www.w3.org/2000/svg">
<g opacity="0.1" clip-path="url(#clip0_796_1373)">
<path d="M48.7592 28.2523C49.0483 26.9711 49.4954 25.7309 50.0903 24.5601H110.082C110.687 25.7264 111.135 26.968 111.413 28.2523H48.7592ZM80.0978 52.789C64.195 52.789 51.0711 44.8905 48.7592 34.6318H68.2816C67.7113 34.9775 67.2398 35.4645 66.9125 36.0458C66.5853 36.627 66.4134 37.283 66.4134 37.9501C66.3945 38.6506 66.5609 39.3436 66.896 39.9588C67.2311 40.5741 67.7228 41.0897 68.3213 41.4534C68.9198 41.817 69.6038 42.0159 70.3038 42.0296C71.0039 42.0434 71.6951 41.8716 72.3075 41.5317C72.9198 41.1919 73.4313 40.696 73.7903 40.0944C74.1493 39.4928 74.3428 38.8069 74.3514 38.1062C74.3599 37.4056 74.1831 36.7152 73.8389 36.105C73.4947 35.4948 72.9954 34.9866 72.3916 34.6318H85.4921C84.9218 34.9775 84.4503 35.4645 84.123 36.0458C83.7958 36.627 83.6239 37.283 83.6239 37.9501C83.6099 38.6472 83.7794 39.3358 84.1155 39.9465C84.4516 40.5573 84.9424 41.0688 85.5386 41.4296C86.1348 41.7904 86.8154 41.9879 87.512 42.0021C88.2086 42.0163 88.8967 41.8468 89.5071 41.5106C90.1176 41.1744 90.6288 40.6834 90.9895 40.0868C91.3502 39.4903 91.5476 38.8092 91.562 38.1121C91.5763 37.415 91.4071 36.7264 91.0713 36.1155C90.7354 35.5046 90.2448 34.9929 89.6488 34.6318H111.343C109.101 44.8905 95.9538 52.789 80.0978 52.789ZM70.0564 11.2869C69.148 13.1273 68.4733 15.0742 68.0481 17.0822C68.0118 17.4225 68.1012 17.7643 68.2993 18.0432C68.4974 18.3221 68.7906 18.5189 69.1237 18.5964C69.4567 18.674 69.8066 18.627 70.1074 18.4643C70.4083 18.3017 70.6393 18.0345 70.7569 17.7132C71.2536 15.2205 72.212 12.8427 73.5825 10.7027C77.9695 10.0174 82.4362 10.0174 86.8232 10.7027C88.1937 12.8427 89.1521 15.2205 89.6488 17.7132C89.7346 18.0173 89.924 18.2818 90.1841 18.4611C90.4442 18.6403 90.7587 18.7229 91.0732 18.6947C91.435 18.6162 91.751 18.3976 91.9523 18.0868C92.1535 17.7759 92.2237 17.398 92.1474 17.0355C91.7073 15.0347 91.0414 13.0905 90.1625 11.2402C97.2017 12.5687 103.573 16.272 108.214 21.7325H51.8884C56.5624 16.2619 62.9794 12.5724 70.0564 11.2869ZM120.684 28.2523H117.905C116.177 17.386 105.785 8.43597 91.9139 5.11767C91.5846 3.661 90.769 2.36017 89.6015 1.42979C88.434 0.499422 86.9845 -0.00491036 85.4921 5.07593e-06H74.7268C73.2354 -0.000668584 71.788 0.505232 70.6214 1.43492C69.4548 2.3646 68.6381 3.66301 68.3049 5.11767C54.4104 8.43597 44.0188 17.386 42.3141 28.2523H39.6986C38.9003 28.3207 38.1568 28.6864 37.6149 29.2771C37.0731 29.8677 36.7725 30.6403 36.7725 31.4421C36.7725 32.2438 37.0731 33.0164 37.6149 33.6071C38.1568 34.1977 38.9003 34.5634 39.6986 34.6318H42.3608C44.5559 48.3958 60.6455 59.1218 80.1678 59.1218C99.6902 59.1218 115.78 48.3958 117.975 34.6318H120.637C121.435 34.5634 122.179 34.1977 122.721 33.6071C123.263 33.0164 123.563 32.2438 123.563 31.4421C123.563 30.6403 123.263 29.8677 122.721 29.2771C122.179 28.6864 121.435 28.3207 120.637 28.2523H120.684Z" fill="black"/>
<path d="M41.1699 198.724H77.9728L97.9856 123.572H61.1593L41.1699 198.724Z" fill="black"/>
<path d="M72.9986 60.7576H11.1155C9.85453 65.2911 6.44512 78.3773 4.39014 85.5514H30.3577L21.3204 118.828H57.4928L72.9986 60.7576Z" fill="black"/>
<path d="M20.0595 123.572L0 198.724H36.2658L56.2552 123.572H20.0595Z" fill="black"/>
<path d="M134.298 85.5047C135.512 80.831 138.969 67.8148 141 60.7109H77.9495L62.397 118.828H99.2232L108.097 85.5047H134.298Z" fill="black"/>
</g>
<defs>
<clipPath id="clip0_796_1373">
<rect width="141" height="153" fill="white"/>
</clipPath>
</defs>
</svg>
