<svg width="227" height="61" viewBox="0 0 227 61" fill="none" xmlns="http://www.w3.org/2000/svg">
<g clip-path="url(#clip0_926_252)">
<path d="M140.9 13.9998C140.7 13.9998 140.52 13.9998 140.34 13.9998C140.441 13.8815 140.532 13.7543 140.61 13.6198C140.705 13.7624 140.809 13.8993 140.92 14.0298L140.9 13.9998ZM152.4 7.66985C151.4 4.96985 148.81 2.77985 145.4 1.66985C145.082 1.15927 144.641 0.737421 144.116 0.44365C143.592 0.14988 143.001 -0.0062417 142.4 -0.0101528H139.54C138.93 -0.0147473 138.33 0.137328 137.796 0.431497C137.262 0.725667 136.812 1.15207 136.49 1.66985C134.945 2.0749 133.512 2.82539 132.3 3.86473C131.087 4.90407 130.127 6.20515 129.49 7.66985C128.939 7.82982 128.454 8.16445 128.11 8.62342C127.765 9.08238 127.579 9.64085 127.579 10.2148C127.579 10.7888 127.765 11.3473 128.11 11.8063C128.454 12.2652 128.939 12.5999 129.49 12.7598C130.94 16.6298 135.56 19.3998 140.96 19.3998C146.36 19.3998 150.96 16.6298 152.42 12.7598C152.971 12.5999 153.456 12.2652 153.8 11.8063C154.145 11.3473 154.331 10.7888 154.331 10.2148C154.331 9.64085 154.145 9.08238 153.8 8.62342C153.456 8.16445 152.971 7.82982 152.42 7.66985H152.4Z" fill="#ED1C24"/>
<path d="M179.42 41.8101L183.5 26.0001L186.81 33.8901L179.42 41.8101ZM226.77 16.6701C226.773 16.041 226.651 15.4177 226.413 14.8355C226.175 14.2533 225.824 13.7238 225.381 13.2772C224.938 12.8305 224.412 12.4755 223.832 12.2323C223.251 11.9892 222.629 11.8627 222 11.8601H209.13C208.442 11.8622 207.763 12.0124 207.138 12.3006C206.513 12.5888 205.958 13.0081 205.51 13.5301L201.64 18.0001C200.91 16.3301 200.27 14.8001 200.27 14.8001C199.901 13.9346 199.287 13.196 198.503 12.6753C197.72 12.1547 196.801 11.8748 195.86 11.8701H184C183.574 11.95 183.136 11.95 182.71 11.8701H160.05C159.785 11.8725 159.521 11.8959 159.26 11.9401C159.008 11.9014 158.755 11.8781 158.5 11.8701H141C140.725 11.8764 140.451 11.9032 140.18 11.9501C139.926 11.9042 139.668 11.8774 139.41 11.8701H122C121.32 11.8792 120.649 12.0339 120.033 12.3237C119.417 12.6134 118.871 13.0316 118.43 13.5501C117.988 13.0303 117.44 12.6114 116.822 12.3216C116.205 12.0318 115.532 11.8778 114.85 11.8701H102.85C102.575 11.8759 102.301 11.9027 102.03 11.9501C101.769 11.9037 101.505 11.8769 101.24 11.8701H78.66C77.5977 11.8656 76.5639 12.2136 75.7206 12.8597C74.8774 13.5057 74.2722 14.4132 74 15.4401L73.6 16.9301C72.4238 15.6573 71.0196 14.616 69.46 13.8601C65.76 12.0301 61.56 11.8601 56.46 11.8601H46.06C44.9998 11.8606 43.9696 12.2121 43.1302 12.8597C42.2908 13.5074 41.6895 14.4147 41.42 15.4401L41.34 15.7701C40.5493 15.1082 39.7028 14.516 38.81 14.0001C35.09 12.0001 30.81 11.8301 26.06 11.8301H15.28C14.2237 11.8299 13.197 12.179 12.3597 12.8228C11.5223 13.4666 10.9212 14.3692 10.65 15.3901L0.160007 54.6601C-0.0209191 55.3686 -0.0379069 56.1091 0.110335 56.8252C0.258577 57.5413 0.568145 58.2141 1.0155 58.7926C1.46286 59.3711 2.03623 59.84 2.69201 60.1636C3.3478 60.4872 4.06874 60.657 4.80001 60.6601H15.22C16.2776 60.6607 17.3057 60.3121 18.1448 59.6683C18.9838 59.0246 19.5868 58.1217 19.86 57.1001C19.86 57.1001 21.53 50.9301 22.57 47.0001H23.28C26.6446 47.1675 30.0152 46.8305 33.28 46.0001L31 54.6601C30.8191 55.3686 30.8021 56.1091 30.9503 56.8252C31.0986 57.5413 31.4081 58.2141 31.8555 58.7926C32.3029 59.3711 32.8762 59.84 33.532 60.1636C34.1878 60.4872 34.9087 60.657 35.64 60.6601H46.06C47.1172 60.6579 48.1441 60.3069 48.9812 59.6613C49.8184 59.0158 50.4191 58.1119 50.69 57.0901C50.69 57.0901 50.91 56.2701 50.93 56.1501L51.53 57.6301C51.8881 58.5189 52.5045 59.2798 53.2995 59.8146C54.0946 60.3494 55.0318 60.6335 55.99 60.6301H90.84C91.115 60.6242 91.3891 60.5975 91.66 60.5501C91.9209 60.597 92.185 60.6237 92.45 60.6301H102.93C103.994 60.6318 105.028 60.2788 105.868 59.6267C106.709 58.9746 107.307 58.0609 107.57 57.0301L109.83 48.2201C111.39 52.9001 112.83 57.3401 112.83 57.3401C113.148 58.2959 113.759 59.1276 114.575 59.7179C115.391 60.3082 116.373 60.6272 117.38 60.6301H128.91C129.182 60.6316 129.453 60.6082 129.72 60.5601C129.972 60.5987 130.225 60.6221 130.48 60.6301H141.02C141.912 60.6365 142.788 60.3937 143.55 59.9291C144.311 59.4644 144.928 58.7963 145.33 58.0001C145.47 58.2769 145.634 58.5412 145.82 58.7901C146.268 59.3722 146.843 59.8436 147.502 60.1679C148.161 60.4921 148.886 60.6605 149.62 60.6601H172.22H172.5H172.81H185.81C186.501 60.6634 187.184 60.5167 187.812 60.2301C188.441 59.9435 189 59.5238 189.45 59.0001C189.45 59.0001 193 55.0001 195.59 51.8801L198.13 57.8001C198.504 58.6592 199.121 59.3908 199.904 59.9057C200.687 60.4207 201.603 60.6967 202.54 60.7001H214.84C215.652 60.6963 216.45 60.487 217.16 60.0915C217.869 59.696 218.467 59.1273 218.897 58.4384C219.328 57.7495 219.577 56.9628 219.621 56.1517C219.665 55.3407 219.503 54.5317 219.15 53.8001C219.15 53.8001 212.67 40.4801 210.56 36.1601C213.92 32.5201 225.5 19.9101 225.5 19.9101C226.318 19.0296 226.772 17.8718 226.77 16.6701Z" fill="#ED1C24"/>
<path d="M139.47 2.25977C139.173 2.25892 138.884 2.35666 138.649 2.53765C138.414 2.71864 138.245 2.97264 138.17 3.25977L138.11 3.50977L137.85 3.56977C134.28 4.41977 131.69 6.68977 131.27 9.35977L131.21 9.70977H130.16C130.053 9.71748 129.953 9.76682 129.882 9.84721C129.811 9.9276 129.774 10.0326 129.78 10.1398C129.776 10.1931 129.783 10.2467 129.8 10.2975C129.817 10.3482 129.844 10.395 129.879 10.4351C129.915 10.4752 129.958 10.5078 130.006 10.5309C130.054 10.554 130.107 10.5673 130.16 10.5698H131.22L131.27 10.9298C131.83 14.4298 135.96 17.0698 140.9 17.0698C145.84 17.0698 150 14.4698 150.52 10.9998V10.6398H151.59C151.697 10.6321 151.797 10.5827 151.868 10.5023C151.939 10.4219 151.976 10.3169 151.97 10.2098C151.976 10.1026 151.939 9.9976 151.868 9.91721C151.797 9.83682 151.697 9.78748 151.59 9.77977H150.52V9.42977C150.1 6.75977 147.52 4.48977 143.93 3.63977L143.69 3.57977L143.63 3.32977C143.553 3.04349 143.384 2.79045 143.149 2.60972C142.914 2.42899 142.626 2.33061 142.33 2.32977L139.47 2.25977Z" fill="white"/>
<path d="M81.02 47.1699L82.78 40.6399H94.08L96.31 32.1399H85.06L86.74 25.7199H98.87L101.27 16.6699H78.66L68.24 55.8999H90.84L93.16 47.1699H81.02Z" fill="white"/>
<path d="M162.41 47.1699L164.16 40.6399H175.46L177.7 32.1399H166.45L168.13 25.7199H180.26L182.66 16.6699H160.06L149.62 55.8999H172.22L174.54 47.1699H162.41Z" fill="white"/>
<path d="M122.36 40.9999C122.021 39.3043 121.566 37.6338 121 35.9999L114.81 16.6299H102.81L92.45 55.8999H102.93L108 35.9999C108.449 34.2097 108.783 32.3926 109 30.5599C109 30.1799 109.07 29.8499 109.12 29.4699C109.427 31.6578 109.966 33.8067 110.73 35.8799L118 55.8199L122.36 40.9999Z" fill="white"/>
<path d="M222 16.6699H209.13L202.49 24.3499C201.636 25.2928 200.882 26.3216 200.24 27.4199C199.91 26.4199 199.53 25.3399 199.14 24.4199L195.86 16.6899H184L192.54 34.6899L172.81 55.8999H185.81L194.72 45.5199C195.537 44.5454 196.273 43.5052 196.92 42.4099C197.29 43.5499 197.67 44.5899 198.01 45.4099L202.54 55.8899H214.84L204.84 35.3099L222 16.6699Z" fill="white"/>
<path d="M31.28 29.1697C30.84 33.2297 27.7 33.8897 22.1 33.8897H21.1L23.5 24.9997H25.36C29.64 24.9997 31.59 26.1997 31.28 29.1597V29.1697ZM36.51 18.2397C33.76 16.7697 30.26 16.6597 26.04 16.6597H15.28L4.80002 55.8997H15.22L18.89 42.2397H23.28C27.72 42.2397 31.19 42.1197 34.18 40.4197C36.1836 39.156 37.8719 37.4514 39.1163 35.4358C40.3606 33.4202 41.1281 31.147 41.36 28.7897C41.89 23.7897 40.25 20.2897 36.51 18.2497V18.2397Z" fill="white"/>
<path d="M62 29.0699C61.61 32.6299 59.14 34.6099 55 34.6099H51.7L54.46 24.2999H56C60.39 24.2999 62.39 25.6199 62 29.0699ZM67.35 18.1399C64.6 16.7799 61 16.6699 56.48 16.6699H46.06L35.63 55.8999H46.06L50.06 40.8999L56.06 55.8999H68L60.06 40.4199C67.06 39.2699 71.62 34.5599 72.32 28.1299C72.82 23.4199 71.1 19.9999 67.36 18.1399H67.35Z" fill="white"/>
<path d="M118 55.8099H128.54H130.79H141.3L149.3 25.7799H156.25L158.71 16.6899H141.21H138.96H121.62L119.16 25.7799H126.03L118 55.8099Z" fill="white"/>
<path d="M132.58 9.33987C132.65 8.9919 132.767 8.65533 132.93 8.33987H148.86C149.023 8.65533 149.14 8.9919 149.21 9.33987H132.58ZM140.9 15.8499C136.68 15.8499 133.19 13.7499 132.58 11.0299H137.76C137.505 11.1041 137.291 11.2765 137.163 11.509C137.036 11.7416 137.006 12.0153 137.08 12.2699C137.154 12.5245 137.327 12.7392 137.559 12.8667C137.792 12.9942 138.065 13.0241 138.32 12.9499C138.455 12.9566 138.591 12.9358 138.718 12.8886C138.845 12.8414 138.961 12.7688 139.06 12.6753C139.158 12.5817 139.236 12.4692 139.289 12.3445C139.343 12.2198 139.37 12.0855 139.37 11.9499C139.372 11.772 139.327 11.5966 139.24 11.4419C139.152 11.2872 139.024 11.1588 138.87 11.0699H142.35C142.155 11.1896 142.005 11.3697 141.922 11.5827C141.839 11.7957 141.827 12.0301 141.89 12.2501C141.952 12.4701 142.084 12.6638 142.267 12.8017C142.449 12.9397 142.671 13.0143 142.9 13.0143C143.129 13.0143 143.351 12.9397 143.533 12.8017C143.716 12.6638 143.848 12.4701 143.91 12.2501C143.973 12.0301 143.961 11.7957 143.878 11.5827C143.795 11.3697 143.645 11.1896 143.45 11.0699H149.21C148.6 13.7499 145.11 15.8499 140.9 15.8499ZM138.2 4.84987C137.961 5.34314 137.783 5.86363 137.67 6.39987C137.649 6.49532 137.667 6.59516 137.719 6.67759C137.772 6.76002 137.855 6.81836 137.95 6.83987C138.045 6.85814 138.144 6.83932 138.226 6.78727C138.307 6.73521 138.366 6.65386 138.39 6.55987C138.521 5.89207 138.775 5.25453 139.14 4.67987C140.303 4.4932 141.487 4.4932 142.65 4.67987C143.023 5.25013 143.278 5.88939 143.4 6.55987C143.424 6.65386 143.483 6.73521 143.564 6.78727C143.646 6.83932 143.745 6.85814 143.84 6.83987C143.935 6.81836 144.018 6.76002 144.071 6.67759C144.123 6.59516 144.141 6.49532 144.12 6.39987C144.002 5.86488 143.824 5.34492 143.59 4.84987C145.461 5.20668 147.154 6.19085 148.39 7.63987H133.39C134.624 6.17959 136.322 5.18755 138.2 4.82987V4.84987ZM151.64 9.35987H150.93C150.48 6.46987 147.72 4.09987 144.03 3.21987C143.942 2.83449 143.726 2.49029 143.417 2.24334C143.109 1.99638 142.725 1.86122 142.33 1.85987H139.47C139.073 1.85896 138.687 1.99308 138.377 2.24022C138.066 2.48736 137.848 2.83282 137.76 3.21987C134.07 4.09987 131.31 6.46987 130.86 9.35987H130.16C129.942 9.36511 129.734 9.45625 129.582 9.6135C129.431 9.77075 129.347 9.98143 129.35 10.1999C129.347 10.4193 129.43 10.631 129.582 10.7899C129.733 10.9487 129.941 11.042 130.16 11.0499H130.86C131.44 14.6999 135.71 17.5499 140.86 17.5499C146.01 17.5499 150.31 14.6999 150.86 11.0499H151.57C151.788 11.042 151.995 10.9484 152.145 10.7893C152.294 10.6301 152.375 10.4183 152.37 10.1999C152.381 9.99034 152.312 9.78438 152.176 9.6244C152.041 9.46442 151.849 9.36259 151.64 9.33987V9.35987Z" fill="#848686"/>
<path d="M130.56 54.5599H140.34L145.65 34.6299H135.87L130.56 54.5599Z" fill="#848686"/>
<path d="M139 18H122.58C122.25 19.2 121.31 22.67 120.8 24.58H127.66L125.29 33.42H134.9L139 18Z" fill="#848686"/>
<path d="M124.96 34.6299L119.63 54.5599H129.26L134.57 34.6299H124.96Z" fill="#848686"/>
<path d="M155.29 24.5297C155.61 23.3197 156.55 19.8397 157.07 17.9497H140.31L136.2 33.3697H146L148.35 24.5297H155.35" fill="#848686"/>
</g>
<defs>
<clipPath id="clip0_926_252">
<rect width="226.77" height="60.7" fill="white"/>
</clipPath>
</defs>
</svg>
